<svg xmlns="http://www.w3.org/2000/svg" viewBox="0 0 775.92 805.96">
    <defs>
        <style>.cls-1{fill:#1a3971;}.cls-2,.cls-4{fill:#fdb503;}.cls-3{fill:#fcb306;}.cls-4{fill-rule:evenodd;}</style>
    </defs>
    <g id="Layer_2" data-name="Layer 2">
        <g id="Layer_1-2" data-name="Layer 1">
            <path class="cls-1"
                  d="M689.2,243.73c-13.38-56.1-41.79-99.54-48.43-109.74-7.67-11.77-21.66-32.92-45.49-54.87a289.43,289.43,0,0,0-23-18.84C495.57,4.1,411.72.24,411.72.24,397.81-.41,337.63-2.09,270,32.36c-66.3,33.77-102.42,83.22-111.68,96.49-6,8.63-72.39,106.71-53.61,229.78,6.43,42.14,20.61,72.6,22.74,72,3.16-.86-23.73-68.54-5.84-145.16,7.72-33.07,21.22-57.22,30.35-73.25C184.13,155.78,227.65,113,287,86.44c-.25,1.17-.5,2.35-.74,3.52-.16.52-.29.94-.39,1.25s-.1.32-.1.33c-.53,1.71-37.54,80.08-49.93,140.78-3.44,16.85-9,26.83-8.23,27.12.48.19,2.94-3.7,2.3-4.38-2.11-2.25-38.87,28.75-79.8,64.47l-5.22,5.72,85-42.75A396.58,396.58,0,0,0,248.73,419l.29,0a50.38,50.38,0,0,1-1-6,61.54,61.54,0,0,1-.25-6.85c-1.55-42.18,2.4-83.87,9.63-125.31,1.15-6.56,3.83-10,10.17-12.26,78.12-27.42,126.82-31.37,126.82-31.37l40.07-5.39a331.67,331.67,0,0,0,6.5,87.45c2.34,11.08,5.12,21.37,8.12,30.87-2-18.95-3.12-33.08-3.33-38.11-.24-5.58-.07-10.56-.07-10.56,0-1.38.1-2.56.16-3.57.15-2.4.36-4.4.81-8.2,1.15-9.69,2.25-17.22,2.43-18.44.65-4.37,3.61-24.05,8.12-32.58a10.86,10.86,0,0,1,3.53-4.11,10.58,10.58,0,0,1,6.52-1.54c14.31.85,28.71.27,43,1.71,9.68,1,12.22.94,17.34,1.32,0,0,3.9.29,9.23.9,6.76.77,19.65,2.62,28.26,4.34,24,4.77,41.2,13.68,41.59,12.81.48-1.06-25-14.06-54.44-26.66s-46.3-17.69-64.26-20.73c-8.11-1.37-14.91-2.06-19.62-2.43q6.6-28.69,13.69-57.9,7.77-32.06,15.81-63.27a310.42,310.42,0,0,1,90.45,64.35c11.23,11.55,47.11,50.26,69.92,112.62A326.33,326.33,0,0,1,675,327.43c7.09,51.52.4,97.2-8.67,131.57h0C678.72,430.57,712.9,343.11,689.2,243.73ZM438.33,202.32c-56.68-.3-112.77,11.28-168.24,34.14.71-2.77,1.29-5.22,1.85-7.5.88-3.54,1.66-6.09,1.77-6.46,0,0,.6-2.07,1.2-4.28.13-.45,36.06-133.46,53.88-142.1l1.55-.74-1.55.74c.54-.06,17-11.86,61.29-11.86,0,0,22.57-2.28,69.24,7.83h0l1.52.79C453.41,115.65,446,158.13,438.33,202.32Z"
                  transform="translate(-9.72)"/>
            <path class="cls-2"
                  d="M599.21,412c.59-8,.84-12-1-13-1.24-.67-2.94.08-6,2-8.74,5.49-16.94,13.3-16.22,14.14s12.52-7.65,12.22-8.14c-.18-.3-5.06,2.25-13.54,7-53.21,66.56-122.37,98.73-206.3,96-85.59-2.82-156.1-39.28-209.22-113.44.49,3,.57,4.47,1,5.86,17.93,60.71,55.78,103.49,109.9,130.89,60.85,30.8,123.86,34.81,187.61,15.66A228.83,228.83,0,0,0,517.92,521c13.53-8.9,47.58-31.54,71.08-74.28a191.79,191.79,0,0,0,9-18.78C598.2,425.63,598.63,419.9,599.21,412Z"
                  transform="translate(-9.72)"/>
            <path class="cls-3" d="M190.79,405.35c-22.88-10.71-26.86-8.82-44.06,17.2-2.8-13.58,1.88-28.91,11.25-32.19C170.39,386,180.84,390,190.79,405.35Z" transform="translate(-9.72)"/>
            <path class="cls-4" d="M618.41,345.18l-12.69,26.4-11.94,2-28.91,4.82h0a86.45,86.45,0,0,1,20.3-15.19l5.73-3.09c4.89-2.63,9.78-5.25,14.67-7.9l.63-.34C610.27,349.65,614.35,347.4,618.41,345.18Z" transform="translate(-9.72)"/>
            <path class="cls-4"
                  d="M647.28,391c-2.79-10.74-11-32.35-11.66-34.22a2.84,2.84,0,0,1,.07-1.95c0-.12.1-.24.16-.36,1-2.33,2.14-4.62,3.24-6.91,1.47-3.11,3-6.21,4.46-9.32.77-1.59,1.52-3.18,2.29-4.78.06-.15.14-.3.21-.46,1.17-2.77,2.25-4.82,2.36-5.06,1-2.13,4.61-11.77,1.8-13.93-.57-.44-2-1.05-6,1a2.82,2.82,0,0,0-1.05.89c-.08.15-.15.32-.15.32a3.21,3.21,0,0,0-.11.36,8.59,8.59,0,0,1-4,5.29c0-1.73,0-3.33-.07-5.2-1.22.88-2.24,1.54-3.18,2.32a23.47,23.47,0,0,0-2.32,2.24,28.17,28.17,0,0,0-3.64,5.12,48.41,48.41,0,0,0-2.52,5.23.3.3,0,0,1,0,.08c-.57,1.37-1.13,2.75-1.7,4.13-1.66,4-2.92,7.7-4.25,10.81-.35.82-.68,1.57-1,2.28-1.26,2.71-2.31,4.64-2.57,5.11-2.24,4.13-7.65,15.57-12.23,24.42-5,9.58-9.66,17.5-12.48,22.25.26-.07.41-.09.43,0s-.22.25-.73.56c-1.6,2.69-2.51,4.24-2.39,4.31s3.34-4.64,3.58-4.49-1.62,3.11-4.49,8.57l-2.72,5.21a2.18,2.18,0,0,0-.23-.09c1.29-4,2.57-8.07,3.9-12.2,1-.56,1.83-1,2.35-1.31l.3-.51q-2.5.69-19.74,8.16h0l-1.14.63a47.51,47.51,0,0,0-7.2,5l-.23,0v.12c1.36.18,4.89.51,7.71,1.07,0,0,9.35,1.85,25.2,13.91.15.11.39.3.7.57a12.66,12.66,0,0,1,3.29,4.72,33.59,33.59,0,0,0,1.36-8.26,34.7,34.7,0,0,0-3.81-17c-.48,1.91-.87,3.39-.91,3.38a5.37,5.37,0,0,1,.1-.94h0a12.23,12.23,0,0,1,.55-2.15c.89-2.43,16.55-21.51,21.63-29,.74-1.1,1.5-2.18,2.3-3.32q13,18.86,26,37.7a61.35,61.35,0,0,0,0-17.33A64.54,64.54,0,0,0,647.28,391Zm-22.86-43.24-.12,0a1.52,1.52,0,0,1-1.57-.38,1.54,1.54,0,0,1,1.81-2.45,1.61,1.61,0,0,1,.73.79A1.54,1.54,0,0,1,624.42,347.75Zm1.7-4.32a1.53,1.53,0,0,1-1.35-1v0a1.52,1.52,0,0,1,.12-1.35,1.55,1.55,0,1,1,1.24,2.34Zm2.67-4.37a1.55,1.55,0,0,1-2.1-1.11,1.52,1.52,0,0,1,.63-1.57,1.56,1.56,0,0,1,2.32.67A1.54,1.54,0,0,1,628.79,339.06Zm2.28-4.36a1.54,1.54,0,1,1,.65-1.47A1.53,1.53,0,0,1,631.07,334.7Zm2.16-4a1.55,1.55,0,0,1-2.4-1.06,1.5,1.5,0,0,1,.66-1.47,1.54,1.54,0,0,1,2.4,1.05A1.52,1.52,0,0,1,633.23,330.66Zm-.18-5a1.53,1.53,0,0,1,.85-2,1.55,1.55,0,0,1,2.12,1.28,1.52,1.52,0,0,1-.7,1.43A1.55,1.55,0,0,1,633.05,325.66Z"
                  transform="translate(-9.72)"/>
        </g>
    </g>
</svg>